<?xml version="1.0"?>
<svg id="Capa_1" data-name="Capa 1" xmlns="http://www.w3.org/2000/svg" viewBox="0 0 1080 1080">
  <defs>
    
  </defs>
  <path class="cls-1" d="m598.95,429.17c-10.38-5.31-21.79-8.67-34.14-10.07-1.83-.21-3.23-1.72-3.23-3.56v-18.13c0-1.99,1.61-3.61,3.61-3.61h64.06c1.99,0,3.61,1.61,3.61,3.61v64.79c0,.23-.29.3-.4.1-8.13-14.72-19.42-25.86-33.5-33.13Z"></path>
  <path class="cls-1" d="m789.86,636.8h-77.25c-1.08,0-2.11-.49-2.78-1.34l-53.34-66.8c-1.33-1.67-3.82-1.8-5.32-.27l-6,6.1-5.77,5.89-5.77,5.89-.77.77v46.01c0,1.97-1.59,3.56-3.56,3.56h-63.42c-1.97,0-3.56-1.59-3.56-3.56v-101.08c0-4.31-.23-8.27-.73-11.89-1.15-8.54-3.62-15.16-7.5-19.82-5.5-6.62-13.01-9.97-22.51-9.97-6.73,0-12.89,1.66-18.4,4.89-5.5,3.27-9.74,8.2-12.74,14.82-3,6.66-4.5,15.2-4.5,25.71v97.35c0,1.97-1.59,3.56-3.56,3.56h-64.15c-1.97,0-3.56-1.59-3.56-3.56v-101.08c0-14.51-2.69-25.09-8.08-31.71-5.39-6.62-12.93-9.97-22.71-9.97-7,0-13.2,1.66-18.55,4.89-5.39,3.27-9.66,8.2-12.78,14.82-3.12,6.66-4.7,15.2-4.7,25.71v97.35c0,1.97-1.59,3.56-3.56,3.56h-64.15c-1.97,0-3.56-1.59-3.56-3.56v-196.2c0-1.97,1.59-3.56,3.56-3.56h60.81c1.97,0,3.56,1.59,3.56,3.56v9.37c0,3.07,3.57,4.64,5.91,2.65,3.51-2.98,7.28-5.62,11.33-7.92,13.01-7.35,27.52-11.05,43.53-11.05,18.24,0,34.33,4.7,48.22,14.05,5.73,3.88,10.64,8.63,14.82,14.27,1.31,1.77,3.98,1.89,5.45.26,5-5.54,10.73-10.39,17.21-14.53,14.66-9.35,31.48-14.05,50.49-14.05,3.46,0,6.85.15,10.12.5,11.74,1.04,22.4,4.08,32.06,9.04,12.39,6.39,22.17,16.2,29.29,29.48,5.2,9.7,8.51,21.44,9.93,35.29v.08l5.2-5.04,5.12-4.96,61.42-59.8c.66-.65,1.56-1.01,2.48-1.01h74.58c3.14,0,4.74,3.78,2.56,6.04l-76.23,78.71c-1.24,1.28-1.34,3.28-.24,4.68l84.92,108.14c1.83,2.34.17,5.76-2.8,5.76Z"></path>
  <g>
    <path class="cls-1" d="m290.08,685.99v-23.17h2.02l10.59,18.07h-1.06l10.49-18.07h2.02v23.17h-2.35v-19.5h.56l-9.66,16.55h-1.16l-9.73-16.55h.63v19.5h-2.35Z"></path>
    <path class="cls-1" d="m344.66,683.87h13.94v2.12h-16.38v-23.17h15.89v2.12h-13.44v18.93Zm-.26-10.69h12.25v2.09h-12.25v-2.09Z"></path>
    <path class="cls-1" d="m389.38,685.99v-21.05h-8.14v-2.12h18.73v2.12h-8.14v21.05h-2.45Z"></path>
    <path class="cls-1" d="m434.2,686.19c-1.75,0-3.36-.29-4.85-.88-1.49-.58-2.78-1.41-3.87-2.48-1.09-1.07-1.94-2.32-2.55-3.74-.61-1.42-.91-2.98-.91-4.68s.3-3.26.91-4.69c.61-1.42,1.46-2.67,2.55-3.74s2.38-1.9,3.85-2.48c1.48-.58,3.1-.88,4.87-.88s3.35.29,4.83.88c1.47.59,2.76,1.41,3.85,2.47,1.09,1.06,1.94,2.31,2.55,3.74s.91,3,.91,4.7-.3,3.26-.91,4.7-1.46,2.68-2.55,3.74c-1.09,1.06-2.38,1.88-3.85,2.46-1.48.59-3.09.88-4.83.88Zm0-2.18c1.39,0,2.67-.24,3.85-.71,1.18-.47,2.21-1.15,3.08-2.02.87-.87,1.55-1.89,2.04-3.04.48-1.16.73-2.43.73-3.82s-.24-2.66-.73-3.82c-.49-1.16-1.16-2.17-2.04-3.04-.87-.87-1.9-1.54-3.08-2.02-1.18-.47-2.46-.71-3.85-.71s-2.68.24-3.87.71c-1.19.48-2.22,1.15-3.1,2.02-.87.87-1.56,1.89-2.05,3.04-.5,1.16-.74,2.43-.74,3.82s.25,2.64.74,3.81,1.18,2.19,2.05,3.06c.87.87,1.9,1.55,3.1,2.02,1.19.47,2.48.71,3.87.71Z"></path>
    <path class="cls-1" d="m472.36,685.99v-23.17h9.43c2.47,0,4.64.49,6.5,1.47,1.87.98,3.32,2.35,4.36,4.09,1.03,1.74,1.56,3.75,1.56,6.02s-.52,4.28-1.56,6.02c-1.04,1.74-2.49,3.11-4.36,4.09-1.86.98-4.03,1.47-6.5,1.47h-9.43Zm2.45-2.12h6.85c2.05,0,3.83-.4,5.35-1.21,1.51-.8,2.69-1.92,3.52-3.34.84-1.42,1.26-3.06,1.26-4.92s-.42-3.52-1.26-4.93c-.84-1.41-2.01-2.52-3.52-3.33-1.51-.81-3.29-1.21-5.35-1.21h-6.85v18.93Z"></path>
    <path class="cls-1" d="m530.35,686.19c-1.75,0-3.36-.29-4.85-.88-1.49-.58-2.78-1.41-3.87-2.48-1.09-1.07-1.94-2.32-2.55-3.74-.61-1.42-.91-2.98-.91-4.68s.3-3.26.91-4.69c.61-1.42,1.46-2.67,2.55-3.74s2.38-1.9,3.85-2.48c1.48-.58,3.1-.88,4.87-.88s3.35.29,4.83.88c1.47.59,2.76,1.41,3.85,2.47,1.09,1.06,1.94,2.31,2.55,3.74s.91,3,.91,4.7-.3,3.26-.91,4.7-1.46,2.68-2.55,3.74c-1.09,1.06-2.38,1.88-3.85,2.46-1.48.59-3.09.88-4.83.88Zm0-2.18c1.39,0,2.67-.24,3.85-.71,1.18-.47,2.21-1.15,3.08-2.02.87-.87,1.55-1.89,2.04-3.04.48-1.16.73-2.43.73-3.82s-.24-2.66-.73-3.82c-.49-1.16-1.16-2.17-2.04-3.04-.87-.87-1.9-1.54-3.08-2.02-1.18-.47-2.46-.71-3.85-.71s-2.68.24-3.87.71c-1.19.48-2.22,1.15-3.1,2.02-.87.87-1.56,1.89-2.05,3.04-.5,1.16-.74,2.43-.74,3.82s.25,2.64.74,3.81c.5,1.17,1.18,2.19,2.05,3.06.87.87,1.9,1.55,3.1,2.02,1.19.47,2.48.71,3.87.71Z"></path>
    <path class="cls-1" d="m597.71,685.99v-23.17h2.45v23.17h-2.45Zm2.12-5.76l-.1-2.98,14.03-14.43h2.81l-10.23,10.73-1.39,1.49-5.13,5.2Zm14.53,5.76l-10-11.52,1.66-1.79,11.25,13.31h-2.91Z"></path>
    <path class="cls-1" d="m651.07,686.19c-1.75,0-3.36-.29-4.85-.88-1.49-.58-2.78-1.41-3.87-2.48-1.09-1.07-1.94-2.32-2.55-3.74-.61-1.42-.91-2.98-.91-4.68s.3-3.26.91-4.69c.61-1.42,1.46-2.67,2.55-3.74s2.38-1.9,3.85-2.48c1.48-.58,3.1-.88,4.87-.88s3.35.29,4.83.88c1.47.59,2.76,1.41,3.85,2.47,1.09,1.06,1.94,2.31,2.55,3.74s.91,3,.91,4.7-.3,3.26-.91,4.7-1.46,2.68-2.55,3.74c-1.09,1.06-2.38,1.88-3.85,2.46-1.48.59-3.09.88-4.83.88Zm0-2.18c1.39,0,2.67-.24,3.85-.71,1.18-.47,2.21-1.15,3.08-2.02.87-.87,1.55-1.89,2.04-3.04.48-1.16.73-2.43.73-3.82s-.24-2.66-.73-3.82c-.49-1.16-1.16-2.17-2.04-3.04-.87-.87-1.9-1.54-3.08-2.02-1.18-.47-2.46-.71-3.85-.71s-2.68.24-3.87.71c-1.19.48-2.22,1.15-3.1,2.02-.87.87-1.56,1.89-2.05,3.04-.5,1.16-.74,2.43-.74,3.82s.25,2.64.74,3.81c.5,1.17,1.18,2.19,2.05,3.06.87.87,1.9,1.55,3.1,2.02,1.19.47,2.48.71,3.87.71Z"></path>
    <path class="cls-1" d="m689.23,685.99v-23.17h8.67c1.96,0,3.65.32,5.07.94,1.41.63,2.5,1.53,3.26,2.72.76,1.18,1.14,2.61,1.14,4.29s-.38,3.04-1.14,4.22c-.76,1.18-1.85,2.09-3.26,2.72-1.41.63-3.1.94-5.07.94h-7.31l1.09-1.13v8.47h-2.45Zm2.45-8.28l-1.09-1.16h7.25c2.32,0,4.08-.51,5.28-1.52,1.2-1.01,1.81-2.44,1.81-4.27s-.6-3.29-1.81-4.3c-1.2-1.01-2.96-1.52-5.28-1.52h-7.25l1.09-1.16v13.94Zm13.37,8.28l-5.96-8.41h2.65l5.99,8.41h-2.68Z"></path>
    <path class="cls-1" d="m736.14,683.87h13.94v2.12h-16.38v-23.17h15.89v2.12h-13.44v18.93Zm-.26-10.69h12.25v2.09h-12.25v-2.09Z"></path>
    <path class="cls-1" d="m772.84,685.99l9.5-12.84v1.89l-8.93-12.21h2.81l7.51,10.19-1.09.03,7.52-10.23h2.65l-8.84,12.05v-1.72l9.47,12.84h-2.85l-8.01-10.89h1.03l-7.94,10.89h-2.82Z"></path>
  </g>
</svg>